<svg width="41" height="40" viewBox="0 0 41 40" fill="none" xmlns="http://www.w3.org/2000/svg">
<path d="M21.2053 7C8.95894 7 8 7.93555 8 19.8832V20.1168C8 32.0644 8.95894 33 21.2053 33H21.4447C33.6911 33 34.65 32.0644 34.65 20.1168V20C34.65 7.9438 33.6826 7 21.325 7H21.2053ZM18.66 9.6H23.99C31.4047 9.6 31.985 10.1662 31.985 17.4V22.6C31.985 29.8338 31.4047 30.4 23.99 30.4H18.66C11.2453 30.4 10.665 29.8338 10.665 22.6V17.4C10.665 10.1662 11.2453 9.6 18.66 9.6ZM27.9836 12.2C27.2474 12.2019 26.653 12.7856 26.655 13.5038C26.657 14.2221 27.2552 14.8019 27.9914 14.8C28.7276 14.798 29.322 14.2144 29.32 13.4962C29.318 12.7779 28.7198 12.1981 27.9836 12.2ZM21.3094 13.5C17.6304 13.5084 14.6538 16.4259 14.6625 20.0152C14.6712 23.6045 17.6616 26.5084 21.3406 26.5C25.0196 26.4915 27.9962 23.5741 27.9875 19.9848C27.9788 16.3955 24.9884 13.4915 21.3094 13.5ZM21.3159 16.1C23.5232 16.0948 25.3172 17.8377 25.3225 19.9911C25.3272 22.1446 23.5414 23.8948 21.3341 23.9C19.1268 23.9052 17.3328 22.163 17.3275 20.0089C17.3222 17.8554 19.1086 16.1052 21.3159 16.1Z" fill="white"/>
</svg>
