<svg width="25" height="24" viewBox="0 0 25 24" fill="none" xmlns="http://www.w3.org/2000/svg">
<path d="M11.9299 4.20001C4.46265 4.20001 3.87793 4.76134 3.87793 11.9299V12.0701C3.87793 19.2387 4.46265 19.8 11.9299 19.8H12.0759C19.5432 19.8 20.1279 19.2387 20.1279 12.0701V12C20.1279 4.76629 19.5381 4.20001 12.0029 4.20001H11.9299ZM10.3779 5.76001H13.6279C18.1491 5.76001 18.5029 6.0997 18.5029 10.44V13.56C18.5029 17.9003 18.1491 18.24 13.6279 18.24H10.3779C5.85677 18.24 5.50293 17.9003 5.50293 13.56V10.44C5.50293 6.0997 5.85677 5.76001 10.3779 5.76001ZM16.063 7.32001C15.6141 7.32118 15.2517 7.67135 15.2529 8.1023C15.2541 8.53325 15.6189 8.88118 16.0678 8.88001C16.5167 8.87884 16.8791 8.52868 16.8779 8.09773C16.8767 7.66678 16.512 7.31884 16.063 7.32001ZM11.9934 8.10001C9.7501 8.10508 7.93515 9.85557 7.94043 12.0092C7.94571 14.1627 9.76914 15.9051 12.0125 15.9C14.2558 15.8949 16.0707 14.1445 16.0654 11.9909C16.0601 9.83729 14.2367 8.09494 11.9934 8.10001ZM11.9974 9.66001C13.3433 9.65689 14.4372 10.7026 14.4404 11.9947C14.4433 13.2867 13.3544 14.3369 12.0085 14.34C10.6626 14.3431 9.56868 13.2978 9.56543 12.0053C9.56218 10.7133 10.6515 9.66313 11.9974 9.66001Z" fill="white"/>
</svg>
