<svg width="72" height="51" viewBox="0 0 72 51" fill="none" xmlns="http://www.w3.org/2000/svg">
<path d="M15.6144 32.1406H60.7229L56.3855 50.8162H11.2771L15.6144 32.1406Z" fill="#646AFF"/>
<path d="M19.5911 45.8726V44.0435V43.7964V40.6819V40.5666V38.5232H20.6841V40.5666L20.7491 40.6819V45.8726H19.5911ZM23.2344 41.5718C23.2344 40.9566 23.1303 40.5062 22.9221 40.2205C22.7226 39.9349 22.4624 39.7921 22.1414 39.7921C21.9159 39.7921 21.7164 39.8525 21.5429 39.9734C21.3694 40.0942 21.2219 40.2645 21.1005 40.4842C20.9877 40.6929 20.9009 40.9401 20.8402 41.2257C20.7795 41.5113 20.7491 41.8244 20.7491 42.165H20.4629V40.6984C20.4889 40.3908 20.554 40.0997 20.6581 39.825C20.7708 39.5504 20.914 39.3087 21.0875 39.1C21.2696 38.8913 21.4735 38.7265 21.699 38.6056C21.9246 38.4848 22.1675 38.4244 22.4277 38.4244C22.6619 38.4244 22.8874 38.4793 23.1043 38.5892C23.3212 38.699 23.512 38.8583 23.6768 39.067C23.8503 39.2648 23.9891 39.5065 24.0932 39.7921C24.206 40.0777 24.2711 40.3908 24.2884 40.7314L24.3925 41.2257V45.8726H23.2344V41.5718ZM26.8778 41.7201C26.8778 41.3795 26.8431 41.0884 26.7737 40.8467C26.713 40.594 26.6262 40.3908 26.5135 40.237C26.4007 40.0832 26.2706 39.9734 26.1231 39.9074C25.9756 39.8305 25.8238 39.7921 25.6677 39.7921C25.4595 39.7921 25.273 39.8525 25.1082 39.9734C24.952 40.0832 24.8219 40.237 24.7178 40.4347C24.6137 40.6325 24.5313 40.8687 24.4706 41.1433C24.4185 41.418 24.3925 41.7311 24.3925 42.0826H23.859V40.6819C23.8937 40.3743 23.9674 40.0887 24.0802 39.825C24.193 39.5504 24.3405 39.3087 24.5226 39.1C24.7135 38.8913 24.926 38.7265 25.1602 38.6056C25.3944 38.4848 25.6503 38.4244 25.9279 38.4244C26.2055 38.4244 26.4701 38.4903 26.7217 38.6221C26.9819 38.743 27.2074 38.9242 27.3983 39.1659C27.5978 39.3966 27.754 39.6822 27.8667 40.0228C27.9882 40.3524 28.0489 40.7259 28.0489 41.1433V41.3411V45.8726H26.8778V41.7201ZM32.3982 46.0045C31.9558 46.0045 31.5481 45.9166 31.175 45.7408C30.8107 45.5541 30.4897 45.2959 30.2121 44.9663C29.9432 44.6368 29.7307 44.2413 29.5746 43.7799C29.4271 43.3185 29.3534 42.7967 29.3534 42.2144C29.3534 41.6102 29.4314 41.0719 29.5876 40.5995C29.7524 40.1272 29.9736 39.7317 30.2512 39.4131C30.5288 39.0835 30.8454 38.8308 31.2011 38.6551C31.5654 38.4793 31.9471 38.3914 32.3461 38.3914C32.7972 38.3914 33.1962 38.4958 33.5432 38.7045C33.8989 38.9022 34.1982 39.1769 34.4411 39.5284C34.684 39.869 34.8661 40.2645 34.9876 40.7149C35.1177 41.1543 35.1827 41.6157 35.1827 42.0991V42.511H30.069V41.4235H34.7273L34.0507 42.2968V41.8519C34.0507 41.5443 34.0073 41.2587 33.9206 40.995C33.8338 40.7314 33.7081 40.5007 33.5432 40.3029C33.3871 40.1052 33.2006 39.9514 32.9837 39.8415C32.7668 39.7207 32.5283 39.6603 32.2681 39.6603C32.0165 39.6603 31.7779 39.7207 31.5524 39.8415C31.3355 39.9514 31.149 40.1162 30.9929 40.3359C30.8367 40.5556 30.7109 40.8192 30.6155 41.1268C30.5288 41.4344 30.4854 41.7805 30.4854 42.165C30.4854 42.5605 30.5331 42.9175 30.6285 43.2361C30.7326 43.5547 30.8714 43.8293 31.0449 44.06C31.2271 44.2797 31.4396 44.45 31.6825 44.5708C31.9254 44.6917 32.19 44.7521 32.4762 44.7521C32.8406 44.7521 33.1746 44.6642 33.4782 44.4885C33.7905 44.3127 34.0464 44.071 34.2459 43.7634L34.9485 44.5873C34.6623 45.0597 34.2936 45.4167 33.8425 45.6584C33.3914 45.8891 32.91 46.0045 32.3982 46.0045ZM41.0042 45.8726V44.0435L40.9391 43.7964V40.6819V40.5666V34.3377H42.1102V40.5666V40.6819V45.8726H41.0042ZM38.9613 46.0045C38.597 46.0045 38.2457 45.9166 37.9073 45.7408C37.569 45.5651 37.2741 45.3124 37.0225 44.9828C36.771 44.6532 36.5671 44.2523 36.411 43.7799C36.2635 43.3075 36.1898 42.7802 36.1898 42.1979C36.1898 41.6157 36.2592 41.0939 36.3979 40.6325C36.5454 40.1601 36.7449 39.7591 36.9965 39.4296C37.2567 39.1 37.5517 38.8473 37.8813 38.6715C38.2196 38.4848 38.5796 38.3914 38.9613 38.3914C39.2736 38.3914 39.5555 38.4463 39.8071 38.5562C40.0673 38.6551 40.2929 38.7924 40.4837 38.9682C40.6746 39.1439 40.8264 39.3417 40.9391 39.5614C41.0606 39.7701 41.13 39.9843 41.1473 40.204V42.0826H40.9391C40.9391 41.775 40.9001 41.4784 40.822 41.1928C40.744 40.8961 40.6312 40.6435 40.4837 40.4347C40.3363 40.226 40.1498 40.0557 39.9242 39.9239C39.7073 39.7921 39.4601 39.7262 39.1825 39.7262C38.931 39.7262 38.6967 39.7811 38.4799 39.891C38.263 39.9898 38.0722 40.1436 37.9073 40.3524C37.7512 40.5611 37.6254 40.8192 37.53 41.1268C37.4432 41.4344 37.3999 41.786 37.3999 42.1815C37.3999 42.555 37.4432 42.8955 37.53 43.2031C37.6167 43.5107 37.7382 43.7744 37.8943 43.9941C38.0505 44.2138 38.237 44.3841 38.4538 44.5049C38.6707 44.6258 38.9049 44.6862 39.1565 44.6862C39.4428 44.6862 39.6943 44.6203 39.9112 44.4885C40.1367 44.3456 40.3232 44.1644 40.4707 43.9447C40.6182 43.714 40.731 43.4503 40.809 43.1537C40.8958 42.8571 40.9391 42.555 40.9391 42.2474H41.2124V43.9941C41.169 44.2687 41.0779 44.5269 40.9391 44.7686C40.809 45.0103 40.6442 45.2245 40.4447 45.4113C40.2538 45.587 40.0283 45.7298 39.7681 45.8397C39.5165 45.9495 39.2476 46.0045 38.9613 46.0045ZM43.9252 45.8726V38.5232H45.0832V45.8726H43.9252ZM44.5237 36.8589C44.3068 36.8589 44.1247 36.7765 43.9772 36.6117C43.8384 36.436 43.769 36.2163 43.769 35.9526C43.769 35.6889 43.8384 35.4802 43.9772 35.3264C44.1247 35.1616 44.3068 35.0792 44.5237 35.0792C44.7319 35.0792 44.9011 35.1616 45.0312 35.3264C45.17 35.4802 45.2394 35.6889 45.2394 35.9526C45.2394 36.2163 45.17 36.436 45.0312 36.6117C44.9011 36.7765 44.7319 36.8589 44.5237 36.8589ZM51.3095 45.8726V44.0435L51.2444 43.7964V40.6819L51.3095 40.5666V38.5232H52.4155V40.5666V40.6819V45.8726H51.3095ZM49.2666 46.0045C48.9023 46.0045 48.5509 45.9166 48.2126 45.7408C47.8743 45.5651 47.5794 45.3124 47.3278 44.9828C47.0762 44.6532 46.8724 44.2523 46.7162 43.7799C46.5688 43.3075 46.495 42.7802 46.495 42.1979C46.495 41.6157 46.5644 41.0939 46.7032 40.6325C46.8507 40.1601 47.0502 39.7591 47.3018 39.4296C47.562 39.1 47.857 38.8473 48.1866 38.6715C48.5249 38.4848 48.8849 38.3914 49.2666 38.3914C49.5789 38.3914 49.8608 38.4463 50.1124 38.5562C50.3726 38.6551 50.5982 38.7924 50.789 38.9682C50.9799 39.1439 51.1317 39.3417 51.2444 39.5614C51.3659 39.7701 51.4353 39.9843 51.4526 40.204V42.0826H51.2444C51.2444 41.775 51.2054 41.4784 51.1273 41.1928C51.0492 40.8961 50.9365 40.6435 50.789 40.4347C50.6415 40.226 50.455 40.0557 50.2295 39.9239C50.0126 39.7921 49.7654 39.7262 49.4878 39.7262C49.2362 39.7262 49.002 39.7811 48.7852 39.891C48.5683 39.9898 48.3774 40.1436 48.2126 40.3524C48.0565 40.5611 47.9307 40.8192 47.8353 41.1268C47.7485 41.4344 47.7052 41.786 47.7052 42.1815C47.7052 42.555 47.7485 42.8955 47.8353 43.2031C47.922 43.5107 48.0435 43.7744 48.1996 43.9941C48.3558 44.2138 48.5423 44.3841 48.7591 44.5049C48.976 44.6258 49.2102 44.6862 49.4618 44.6862C49.748 44.6862 49.9996 44.6203 50.2165 44.4885C50.442 44.3456 50.6285 44.1644 50.776 43.9447C50.9235 43.714 51.0362 43.4503 51.1143 43.1537C51.2011 42.8571 51.2444 42.555 51.2444 42.2474H51.5177V43.9941C51.4743 44.2687 51.3832 44.5269 51.2444 44.7686C51.1143 45.0103 50.9495 45.2245 50.75 45.4113C50.5591 45.587 50.3336 45.7298 50.0733 45.8397C49.8218 45.9495 49.5529 46.0045 49.2666 46.0045Z" fill="white"/>
<mask id="mask0_47_35" style="mask-type:luminance" maskUnits="userSpaceOnUse" x="0" y="0" width="72" height="24">
<path d="M72 0.831451H0V23.3521H72V0.831451Z" fill="white"/>
</mask>
<g mask="url(#mask0_47_35)">
<path fill-rule="evenodd" clip-rule="evenodd" d="M11.04 6.19435V0.831451H5.52001L11.04 6.19435ZM5.52001 23.3521H11.04V17.6468L5.52001 23.3521ZM0 0.831451V23.3521C1.23166 23.3521 2.41288 22.7399 3.2838 21.6503C4.15472 20.5606 4.644 19.0828 4.644 17.5417V13.3379H7.83842V10.8336H4.644V0.831451H0Z" fill="white"/>
<path d="M14.5153 23.3521H19.1616V5.47971L14.5153 9.76763V23.3521Z" fill="white"/>
<path d="M23.2248 23.3521H27.8712V8.33834C27.5328 7.38643 26.3617 5.47971 24.3864 5.47971C22.4112 5.47971 20.856 7.38643 20.3232 8.33834H23.2248V23.3521Z" fill="white"/>
<path d="M50.8056 6.37133C50.2152 6.39264 49.6418 6.12396 49.2081 5.62275C48.7744 5.12153 48.5146 4.42771 48.4846 3.68988C48.4417 2.11344 49.5239 0.831256 50.8056 0.831256C51.107 0.809746 51.4089 0.865433 51.6921 0.994919C51.9758 1.12441 52.2351 1.32496 52.4546 1.58429C52.6741 1.84362 52.8489 2.15629 52.9686 2.50311C53.0879 2.84994 53.1495 3.22362 53.1495 3.60128C53.1495 3.97895 53.0879 4.35263 52.9686 4.69945C52.8489 5.04628 52.6741 5.35895 52.4546 5.61828C52.2351 5.87761 51.9758 6.07816 51.6921 6.20765C51.4089 6.33711 51.107 6.39281 50.8056 6.37133Z" fill="white"/>
<path d="M48.4799 8.33832H53.1239V20.4934H56.0281C55.7879 20.6705 55.1568 21.3942 54.1392 22.295C53.1217 23.1959 52.8337 23.3671 51.6721 23.3671C51.2527 23.3671 50.8372 23.2637 50.4499 23.0627C50.0626 22.8619 49.7104 22.5674 49.4141 22.1963C49.1174 21.8251 48.8824 21.3845 48.7223 20.8996C48.5618 20.4147 48.4799 19.8951 48.4799 19.3704V8.33832Z" fill="white"/>
<path d="M58.356 23.3521H63V15.8452V0.831451L58.356 5.29954V23.3521Z" fill="white"/>
<path d="M66.4846 10.4823V5.47971H71.4192L66.4846 10.4823Z" fill="white"/>
<path d="M66.4846 12.2719L63 15.8452L66.6286 23.352H72L66.4846 12.2719Z" fill="white"/>
<path d="M37.452 14.7732H44.1286C44.7094 13.8724 44.8174 12.6173 44.7094 11.197C44.4409 7.69277 42.6768 5.49173 39.048 5.49173C40.392 7.38649 40.9344 8.88785 40.644 11.197C40.4136 13.0466 39.048 13.7013 37.452 14.7732Z" fill="white"/>
<path d="M37.4521 5.47971C32.7697 6.90301 31.644 10.1249 31.644 14.7882C31.644 19.4515 34.8912 23.3671 38.9041 23.3671C42.8233 23.3671 44.1287 20.5085 44.1287 20.5085C41.3233 20.6856 35.3689 19.1362 35.7097 11.5693C35.8561 8.33834 37.1617 6.19436 37.4521 5.47971Z" fill="white"/>
</g>
</svg>
