<svg width="65" height="36" viewBox="0 0 65 36" fill="none" xmlns="http://www.w3.org/2000/svg">
<path d="M14.0946 22.5136H54.8126L50.8974 35.8252H10.1794L14.0946 22.5136Z" fill="#646AFF"/>
<path d="M17.6849 32.3016V27.063H18.6716V28.5195L18.7303 28.6017V32.3016H17.6849ZM20.9737 29.236C21.0033 28.891 20.9028 28.5474 20.6918 28.2728C20.6043 28.1729 20.4957 28.0937 20.3738 28.0408C20.2519 27.988 20.1198 27.963 19.9871 27.9674C19.7989 27.9637 19.6129 28.0082 19.4468 28.0966C19.29 28.1863 19.156 28.3109 19.0553 28.4607C18.9477 28.6224 18.8682 28.8011 18.8203 28.9893C18.7637 29.2079 18.736 29.433 18.7381 29.6588H18.4797V28.6134C18.5023 28.3974 18.5619 28.1868 18.6559 27.9909C18.8536 27.597 19.1875 27.2882 19.5955 27.1218C19.8038 27.0347 20.0276 26.9908 20.2533 26.9925C20.4625 26.9921 20.6699 27.032 20.8641 27.11C21.0578 27.187 21.2337 27.3029 21.3809 27.4506C21.546 27.5937 21.6794 27.7697 21.7724 27.9674C21.8756 28.1765 21.9355 28.4042 21.9486 28.6369L22.0425 28.9893V32.3016H20.9737V29.236ZM24.2625 29.3417C24.2674 29.1303 24.2356 28.9197 24.1685 28.7191C24.1243 28.5583 24.0439 28.4097 23.9336 28.2846C23.8372 28.1785 23.7162 28.0979 23.5812 28.0497C23.457 27.9979 23.3242 27.97 23.1897 27.9674C23.0128 27.9646 22.8384 28.0092 22.6846 28.0966C22.5424 28.1762 22.4215 28.2891 22.3323 28.4255C22.2318 28.5811 22.1565 28.7515 22.1091 28.9306C22.0595 29.1502 22.0359 29.3749 22.0386 29.6001H21.5571V28.6017C21.5866 28.3878 21.6543 28.181 21.7567 27.9909C21.8555 27.7968 21.9881 27.6217 22.1483 27.4741C22.3195 27.3259 22.5139 27.2069 22.7238 27.1218C22.9442 27.0339 23.1796 26.9901 23.4168 26.9925C23.6626 26.9916 23.9061 27.0395 24.1333 27.1335C24.3632 27.2174 24.5718 27.3511 24.744 27.525C24.9281 27.6951 25.0725 27.9036 25.1669 28.1358C25.2776 28.3819 25.3337 28.649 25.3313 28.9188V32.2898H24.2742L24.2625 29.3417ZM29.2465 32.3955C28.8702 32.3997 28.4962 32.3361 28.1424 32.2076C27.8209 32.0791 27.5262 31.8919 27.2732 31.6555C27.0267 31.415 26.831 31.1274 26.6977 30.8099C26.4238 30.079 26.4238 29.2738 26.6977 28.543C26.8353 28.2219 27.0395 27.9337 27.2967 27.6973C27.5451 27.4637 27.8363 27.2803 28.1542 27.157C28.4842 27.0315 28.8346 26.9677 29.1878 26.9691C29.5601 26.9617 29.9294 27.038 30.2684 27.1922C30.5788 27.3254 30.8556 27.526 31.0788 27.7795C31.2994 28.0246 31.4673 28.3125 31.5721 28.6252C31.69 28.9407 31.7497 29.275 31.7483 29.6118V29.9055H27.144V29.1224H31.349L30.7382 29.7449V29.4278C30.7403 29.2184 30.7003 29.0107 30.6207 28.817C30.5433 28.6304 30.4273 28.4622 30.2801 28.3237C30.136 28.1807 29.9641 28.0688 29.775 27.9948C29.5711 27.907 29.351 27.863 29.129 27.8656C28.9072 27.8646 28.6874 27.9085 28.483 27.9948C28.2896 28.0715 28.1167 28.1921 27.978 28.3472C27.8314 28.5131 27.716 28.7041 27.6374 28.911C27.556 29.1491 27.5162 29.3994 27.5199 29.651C27.5161 29.9112 27.5599 30.1699 27.6491 30.4144C27.7415 30.6331 27.8743 30.8323 28.0406 31.0017C28.2069 31.1594 28.4024 31.2831 28.6162 31.3658C28.8448 31.4533 29.0878 31.4971 29.3326 31.495C29.6442 31.4987 29.9528 31.4345 30.237 31.3071C30.5055 31.1918 30.7429 31.0147 30.93 30.7903L31.5643 31.3776C31.3044 31.7154 30.9601 31.9788 30.5659 32.141C30.147 32.3115 29.6987 32.398 29.2465 32.3955ZM37.0142 32.3016V30.9978L36.9555 30.8216V24.0797H38.0126V32.3016H37.0142ZM35.1702 32.3955C34.8438 32.396 34.5205 32.3322 34.2188 32.2076C33.9233 32.0834 33.6567 31.8994 33.4358 31.6673C33.1997 31.4185 33.0125 31.1277 32.8837 30.8099C32.7464 30.45 32.6786 30.0674 32.684 29.6823C32.6784 29.302 32.7421 28.9239 32.872 28.5665C32.9937 28.2478 33.1773 27.9564 33.4123 27.709C33.6361 27.4802 33.9019 27.2968 34.1953 27.1687C34.5028 27.0351 34.8349 26.9671 35.1702 26.9691C35.4294 26.9658 35.6874 27.0055 35.9336 27.0865C36.1524 27.1492 36.3589 27.2485 36.5444 27.3802C36.7063 27.4946 36.8456 27.638 36.9555 27.803C37.0587 27.9357 37.1236 28.0941 37.1434 28.2611V29.6001H36.9555C36.9561 29.3842 36.9203 29.1698 36.8498 28.9658C36.7465 28.6567 36.5473 28.3887 36.2811 28.2007C36.0149 28.0126 35.6957 27.9145 35.3699 27.9205C35.1529 27.9186 34.9375 27.9584 34.7356 28.0379C34.541 28.1076 34.3644 28.22 34.2188 28.3668C34.0707 28.5271 33.955 28.7146 33.8782 28.9188C33.7962 29.1608 33.7565 29.4151 33.7607 29.6705C33.7577 29.9182 33.7974 30.1646 33.8782 30.3988C33.9497 30.6065 34.0614 30.7981 34.207 30.9626C34.3473 31.1187 34.5196 31.2429 34.7121 31.3267C34.9199 31.4159 35.1437 31.4618 35.3699 31.4618C35.596 31.4618 35.8198 31.4159 36.0276 31.3267C36.2211 31.2323 36.393 31.099 36.5327 30.9351C36.6676 30.7672 36.7711 30.5762 36.8381 30.3714C36.9155 30.1648 36.9552 29.946 36.9555 29.7254H37.2022V30.9704C37.1612 31.1702 37.077 31.3586 36.9555 31.5224C36.8353 31.6958 36.6871 31.8479 36.517 31.9727C36.1242 32.2468 35.657 32.3944 35.178 32.3955H35.1702ZM39.6492 32.3016V27.063H40.6945V32.3016H39.6492ZM40.1895 25.8767C40.0087 25.882 39.8326 25.8191 39.6961 25.7005C39.6344 25.6392 39.5859 25.5658 39.5536 25.485C39.5213 25.4043 39.5058 25.3177 39.5082 25.2307C39.5044 25.147 39.5193 25.0635 39.5518 24.9863C39.5843 24.9091 39.6336 24.8401 39.6961 24.7844C39.8326 24.6658 40.0087 24.6029 40.1895 24.6082C40.2738 24.6048 40.3579 24.6186 40.4367 24.6489C40.5155 24.6792 40.5872 24.7253 40.6475 24.7844C40.71 24.8401 40.7594 24.9091 40.7919 24.9863C40.8244 25.0635 40.8393 25.147 40.8355 25.2307C40.8378 25.3177 40.8224 25.4043 40.7901 25.485C40.7577 25.5658 40.7092 25.6392 40.6475 25.7005C40.5872 25.7596 40.5155 25.8057 40.4367 25.836C40.3579 25.8663 40.2738 25.8802 40.1895 25.8767ZM46.305 32.3016V30.9978L46.2463 30.8216V28.6017L46.305 28.5195V27.063H47.3034V32.3016H46.305ZM44.4609 32.3955C44.1345 32.396 43.8112 32.3322 43.5095 32.2076C43.2141 32.0834 42.9475 31.8994 42.7265 31.6673C42.4905 31.4185 42.3032 31.1277 42.1745 30.8099C42.0371 30.45 41.9694 30.0674 41.9748 29.6823C41.9692 29.302 42.0328 28.9239 42.1627 28.5665C42.2844 28.2478 42.4681 27.9564 42.703 27.709C42.9268 27.4802 43.1927 27.2968 43.486 27.1687C43.7936 27.0351 44.1256 26.9671 44.4609 26.9691C44.7267 26.9636 44.9915 27.0033 45.244 27.0865C45.4627 27.1492 45.6692 27.2485 45.8547 27.3802C46.0096 27.4965 46.1422 27.6397 46.2463 27.803C46.3494 27.9357 46.4144 28.0941 46.4342 28.2611V29.6001H46.2463C46.2468 29.3842 46.2111 29.1698 46.1405 28.9658C46.0373 28.6567 45.838 28.3887 45.5718 28.2007C45.3057 28.0126 44.9864 27.9145 44.6606 27.9205C44.4436 27.9186 44.2283 27.9584 44.0263 28.0379C43.8317 28.1076 43.6551 28.22 43.5095 28.3668C43.3614 28.5271 43.2458 28.7146 43.1689 28.9188C43.0869 29.1608 43.0472 29.4151 43.0515 29.6705C43.0484 29.9182 43.0882 30.1646 43.1689 30.3988C43.2404 30.6065 43.3522 30.7981 43.4978 30.9626C43.6381 31.1187 43.8103 31.2429 44.0028 31.3267C44.2107 31.4159 44.4345 31.4618 44.6606 31.4618C44.8868 31.4618 45.1105 31.4159 45.3184 31.3267C45.5118 31.2323 45.6838 31.099 45.8234 30.9351C45.9584 30.7672 46.0619 30.5762 46.1288 30.3714C46.2062 30.1648 46.246 29.946 46.2463 29.7254H46.4929V30.9704C46.452 31.1702 46.3678 31.3586 46.2463 31.5224C46.1244 31.6992 45.9735 31.8541 45.7999 31.9805C45.4071 32.2547 44.9399 32.4022 44.4609 32.4033V32.3955Z" fill="white"/>
<path fill-rule="evenodd" clip-rule="evenodd" d="M9.96808 4.01819V0.19696H4.98404L9.96808 4.01819ZM4.98404 16.2492H9.96808V12.1814L4.98404 16.2492ZM0 0.19696V16.2492C1.10911 16.2502 2.17394 15.8141 2.9638 15.0355C3.35217 14.6529 3.6608 14.1971 3.87182 13.6944C4.08284 13.1917 4.19207 12.6522 4.19317 12.107V9.10793H7.07475V7.32261H4.19317V0.19696H0Z" fill="white"/>
<path d="M13.1041 16.2493H17.2973V3.50925L13.1041 6.56701V16.2493Z" fill="white"/>
<path d="M20.9659 16.2493H25.163V5.54515C24.8791 4.95023 24.4364 4.4453 23.8837 4.08605C23.331 3.7268 22.6898 3.52719 22.0308 3.50925C20.2455 3.50925 18.8439 4.86782 18.3623 5.54515H20.9816L20.9659 16.2493Z" fill="white"/>
<path d="M45.8626 4.14351C45.3303 4.15908 44.8127 3.96829 44.4179 3.61104C44.0283 3.25511 43.7947 2.75991 43.7679 2.23289C43.7839 1.8252 43.9159 1.43054 44.1485 1.09535C44.3811 0.76016 44.7047 0.498394 45.081 0.340858C45.4574 0.183322 45.8709 0.136572 46.2729 0.206109C46.675 0.275647 47.0488 0.458578 47.3503 0.733375C47.5484 0.916651 47.7065 1.1389 47.8146 1.38617C47.9226 1.63344 47.9784 1.90039 47.9784 2.17025C47.9784 2.44011 47.9226 2.70706 47.8146 2.95433C47.7065 3.2016 47.5484 3.42385 47.3503 3.60712C47.1509 3.79162 46.9165 3.93417 46.6609 4.02631C46.4053 4.11846 46.1338 4.15831 45.8626 4.14351Z" fill="white"/>
<path d="M43.7639 5.54514H47.9532V14.1977H50.5764C50.3571 14.323 49.7933 14.8398 48.8693 15.4819C47.9454 16.124 47.6948 16.2453 46.6455 16.2453C46.0773 16.2479 45.521 16.0823 45.0466 15.7695C44.5722 15.4568 44.2008 15.0107 43.9793 14.4874C43.8359 14.1425 43.7627 13.7725 43.7639 13.399V5.54514Z" fill="white"/>
<path d="M52.6788 16.2493H56.8759V0.196991L52.6867 3.38004L52.6788 16.2493Z" fill="white"/>
<path d="M60.0082 7.07599V3.50925H64.4597L60.0082 7.07599Z" fill="white"/>
<path d="M60.0081 8.34842L56.876 10.8972L60.153 16.2493H65L60.0081 8.34842Z" fill="white"/>
<path d="M33.8077 10.1337H39.8332C40.3579 9.49164 40.4557 8.59506 40.3579 7.58494C40.1151 5.08705 38.5255 3.51706 35.2485 3.51706C36.4622 4.8678 36.9516 5.93665 36.6893 7.58494C36.4818 8.90045 35.2485 9.37027 33.8077 10.1337Z" fill="white"/>
<path d="M33.8076 3.50925C29.5792 4.52328 28.5652 6.8215 28.5652 10.1651C28.5652 13.5086 31.4977 16.2767 35.1192 16.2767C38.6429 16.2767 39.8174 14.2408 39.8174 14.2408C37.2882 14.3661 31.9127 13.262 32.2181 7.87077C32.3668 5.54515 33.5453 4.01822 33.8076 3.50925Z" fill="white"/>
</svg>
