<svg width="86" height="48" viewBox="0 0 86 48" fill="none" xmlns="http://www.w3.org/2000/svg">
<path d="M18.6482 29.5562H72.5213L67.3412 47.1685H13.4681L18.6482 29.5562Z" fill="#646AFF"/>
<path d="M23.3986 42.5061V35.5752H24.7039V37.5022L24.7816 37.6109V42.5061H23.3986ZM27.7498 38.4501C27.7891 37.9937 27.656 37.5391 27.3769 37.1758C27.2611 37.0436 27.1174 36.9388 26.9561 36.8689C26.7949 36.799 26.6201 36.7658 26.4445 36.7718C26.1955 36.7669 25.9494 36.8257 25.7296 36.9427C25.5222 37.0613 25.3449 37.2262 25.2116 37.4245C25.0692 37.6383 24.9641 37.8748 24.9008 38.1238C24.8258 38.413 24.7892 38.7108 24.792 39.0096H24.4501V37.6265C24.48 37.3406 24.5589 37.062 24.6832 36.8028C24.9448 36.2817 25.3865 35.8731 25.9264 35.6529C26.202 35.5377 26.4981 35.4796 26.7967 35.4819C27.0735 35.4813 27.3479 35.5341 27.6048 35.6373C27.8612 35.7392 28.0939 35.8926 28.2886 36.088C28.507 36.2773 28.6835 36.5102 28.8066 36.7718C28.9432 37.0483 29.0224 37.3496 29.0397 37.6576L29.164 38.1238V42.5061H27.7498V38.4501ZM32.1011 38.59C32.1076 38.3103 32.0656 38.0316 31.9768 37.7663C31.9183 37.5535 31.812 37.3569 31.666 37.1914C31.5385 37.0511 31.3783 36.9443 31.1998 36.8806C31.0355 36.812 30.8598 36.7751 30.6818 36.7718C30.4478 36.7681 30.217 36.8271 30.0135 36.9427C29.8253 37.048 29.6653 37.1973 29.5473 37.3778C29.4144 37.5837 29.3148 37.8092 29.2521 38.0461C29.1865 38.3367 29.1552 38.634 29.1588 38.9319H28.5217V37.6109C28.5608 37.328 28.6503 37.0543 28.7859 36.8028C28.9165 36.5459 29.0919 36.3144 29.3039 36.1191C29.5304 35.923 29.7877 35.7655 30.0653 35.6529C30.3569 35.5367 30.6684 35.4786 30.9822 35.4819C31.3074 35.4807 31.6297 35.5441 31.9302 35.6684C32.2344 35.7794 32.5104 35.9563 32.7383 36.1864C32.9818 36.4114 33.1728 36.6873 33.2977 36.9945C33.4442 37.3201 33.5185 37.6735 33.5153 38.0305V42.4906H32.1167L32.1011 38.59ZM38.6954 42.6305C38.1975 42.636 37.7026 42.5518 37.2346 42.3818C36.8092 42.2119 36.4193 41.9642 36.0846 41.6514C35.7584 41.3332 35.4995 40.9527 35.3231 40.5325C34.9608 39.5656 34.9608 38.5002 35.3231 37.5332C35.5053 37.1084 35.7754 36.7271 36.1157 36.4143C36.4443 36.1053 36.8295 35.8626 37.2501 35.6995C37.6869 35.5334 38.1504 35.4491 38.6177 35.4508C39.1103 35.4411 39.5989 35.542 40.0474 35.7461C40.4581 35.9223 40.8244 36.1877 41.1197 36.5231C41.4116 36.8475 41.6337 37.2283 41.7724 37.642C41.9283 38.0595 42.0073 38.5018 42.0055 38.9474V39.3359H35.9137V38.2999H41.4771L40.669 39.1235V38.7039C40.6718 38.4269 40.6189 38.1521 40.5136 37.8958C40.4112 37.6489 40.2576 37.4264 40.0629 37.2432C39.8723 37.0539 39.6449 36.9058 39.3947 36.808C39.1249 36.6918 38.8337 36.6336 38.54 36.6371C38.2465 36.6357 37.9557 36.6938 37.6853 36.808C37.4293 36.9094 37.2005 37.069 37.017 37.2742C36.8231 37.4937 36.6704 37.7464 36.5664 38.0202C36.4587 38.3352 36.4061 38.6664 36.411 38.9992C36.406 39.3435 36.4639 39.6858 36.5819 40.0093C36.7042 40.2986 36.8799 40.5622 37.0999 40.7863C37.3199 40.995 37.5786 41.1587 37.8614 41.2681C38.1639 41.3839 38.4855 41.4418 38.8094 41.439C39.2215 41.4438 39.6298 41.359 40.006 41.1904C40.3612 41.0378 40.6753 40.8035 40.9228 40.5066L41.762 41.2836C41.4182 41.7306 40.9626 42.0791 40.4411 42.2938C39.8869 42.5193 39.2937 42.6337 38.6954 42.6305ZM48.9727 42.5061V40.7812L48.895 40.5481V31.6279H50.2936V42.5061H48.9727ZM46.5329 42.6305C46.101 42.6311 45.6733 42.5466 45.2741 42.3818C44.8832 42.2175 44.5305 41.9741 44.2381 41.667C43.9258 41.3378 43.6781 40.953 43.5077 40.5325C43.326 40.0564 43.2363 39.5502 43.2435 39.0407C43.2361 38.5375 43.3203 38.0373 43.4922 37.5643C43.6532 37.1427 43.8962 36.7571 44.207 36.4299C44.5031 36.1271 44.8549 35.8844 45.243 35.715C45.6499 35.5383 46.0892 35.4483 46.5329 35.4508C46.8759 35.4465 47.2172 35.4991 47.543 35.6062C47.8324 35.6891 48.1056 35.8205 48.3511 35.9948C48.5652 36.1462 48.7496 36.3359 48.895 36.5542C49.0315 36.7298 49.1175 36.9394 49.1437 37.1603V38.9319H48.895C48.8957 38.6463 48.8485 38.3626 48.7551 38.0927C48.6185 37.6838 48.3549 37.3291 48.0027 37.0803C47.6505 36.8316 47.2282 36.7017 46.7971 36.7096C46.51 36.7071 46.2251 36.7599 45.9579 36.865C45.7004 36.9572 45.4667 37.1059 45.2741 37.3001C45.0782 37.5122 44.9251 37.7603 44.8234 38.0305C44.715 38.3507 44.6624 38.6871 44.668 39.0251C44.664 39.3528 44.7166 39.6788 44.8234 39.9886C44.9181 40.2634 45.0659 40.5169 45.2586 40.7345C45.4442 40.9412 45.6721 41.1055 45.9268 41.2163C46.2018 41.3343 46.4979 41.3951 46.7971 41.3951C47.0963 41.3951 47.3924 41.3343 47.6673 41.2163C47.9233 41.0914 48.1508 40.915 48.3356 40.6983C48.5141 40.4761 48.651 40.2233 48.7396 39.9523C48.842 39.679 48.8946 39.3895 48.895 39.0976H49.2214V40.7449C49.1672 41.0093 49.0558 41.2586 48.895 41.4753C48.736 41.7047 48.5399 41.906 48.3148 42.071C47.7952 42.4337 47.177 42.629 46.5432 42.6305H46.5329ZM52.4589 42.5061V35.5752H53.842V42.5061H52.4589ZM53.1738 34.0056C52.9347 34.0125 52.7017 33.9293 52.5211 33.7725C52.4394 33.6913 52.3753 33.5943 52.3325 33.4874C52.2898 33.3805 52.2693 33.266 52.2724 33.1509C52.2674 33.0402 52.2871 32.9297 52.3301 32.8276C52.3731 32.7254 52.4384 32.6341 52.5211 32.5603C52.7017 32.4035 52.9347 32.3203 53.1738 32.3272C53.2854 32.3227 53.3967 32.341 53.5009 32.3811C53.6051 32.4212 53.7001 32.4822 53.7798 32.5603C53.8626 32.6341 53.9278 32.7254 53.9708 32.8276C54.0138 32.9297 54.0335 33.0402 54.0285 33.1509C54.0316 33.266 54.0112 33.3805 53.9684 33.4874C53.9256 33.5943 53.8615 33.6913 53.7798 33.7725C53.7001 33.8506 53.6051 33.9116 53.5009 33.9517C53.3967 33.9918 53.2854 34.0101 53.1738 34.0056ZM61.2651 42.5061V40.7812L61.1874 40.5481V37.6109L61.2651 37.5022V35.5752H62.586V42.5061H61.2651ZM58.8253 42.6305C58.3934 42.6311 57.9657 42.5466 57.5665 42.3818C57.1756 42.2175 56.8229 41.9741 56.5305 41.667C56.2182 41.3378 55.9704 40.953 55.8001 40.5325C55.6184 40.0564 55.5287 39.5502 55.5359 39.0407C55.5285 38.5375 55.6127 38.0373 55.7845 37.5643C55.9456 37.1427 56.1886 36.7571 56.4994 36.4299C56.7955 36.1271 57.1473 35.8844 57.5354 35.715C57.9423 35.5383 58.3816 35.4483 58.8253 35.4508C59.1769 35.4436 59.5272 35.4962 59.8613 35.6062C60.1507 35.6891 60.4239 35.8205 60.6694 35.9948C60.8742 36.1486 61.0497 36.3381 61.1874 36.5542C61.3239 36.7298 61.4098 36.9394 61.436 37.1603V38.9319H61.1874C61.1881 38.6463 61.1408 38.3626 61.0475 38.0927C60.9109 37.6838 60.6473 37.3291 60.2951 37.0803C59.9429 36.8316 59.5205 36.7017 59.0894 36.7096C58.8023 36.7071 58.5174 36.7599 58.2503 36.865C57.9927 36.9572 57.7591 37.1059 57.5665 37.3001C57.3706 37.5122 57.2175 37.7603 57.1158 38.0305C57.0074 38.3507 56.9548 38.6871 56.9604 39.0251C56.9564 39.3528 57.009 39.6788 57.1158 39.9886C57.2104 40.2634 57.3583 40.5169 57.551 40.7345C57.7366 40.9412 57.9645 41.1055 58.2192 41.2163C58.4941 41.3343 58.7902 41.3951 59.0894 41.3951C59.3887 41.3951 59.6847 41.3343 59.9597 41.2163C60.2157 41.0914 60.4432 40.915 60.6279 40.6983C60.8065 40.4761 60.9434 40.2233 61.032 39.9523C61.1344 39.679 61.187 39.3895 61.1874 39.0976H61.5137V40.7449C61.4595 41.0093 61.3482 41.2586 61.1874 41.4753C61.0261 41.7092 60.8265 41.9141 60.5969 42.0814C60.0772 42.4441 59.459 42.6393 58.8253 42.6408V42.6305Z" fill="white"/>
<path fill-rule="evenodd" clip-rule="evenodd" d="M13.1885 5.08507V0.0292969H6.59427L13.1885 5.08507ZM6.59427 21.2677H13.1885V15.8856L6.59427 21.2677ZM0 0.0292969V21.2677C1.46743 21.269 2.87628 20.692 3.92134 19.6619C4.43518 19.1556 4.84352 18.5525 5.12272 17.8874C5.40192 17.2223 5.54643 16.5085 5.54789 15.7872V11.8192H9.36044V9.45708H5.54789V0.0292969H0Z" fill="white"/>
<path d="M17.3378 21.2679H22.8857V4.41187L17.3378 8.45753V21.2679Z" fill="white"/>
<path d="M27.7396 21.2679H33.2926V7.10552C32.917 6.3184 32.3312 5.65034 31.6 5.17502C30.8687 4.6997 30.0204 4.43561 29.1486 4.41187C26.7864 4.41187 24.932 6.20936 24.2948 7.10552H27.7603L27.7396 21.2679Z" fill="white"/>
<path d="M60.6797 5.25094C59.9755 5.27154 59.2906 5.01912 58.7682 4.54644C58.2528 4.07552 57.9438 3.42034 57.9083 2.72305C57.9294 2.18365 58.1041 1.66147 58.4118 1.21799C58.7196 0.77451 59.1477 0.428175 59.6456 0.219742C60.1436 0.0113093 60.6907 -0.0505447 61.2226 0.0414587C61.7545 0.133462 62.2491 0.375495 62.6481 0.739072C62.9102 0.981561 63.1193 1.27562 63.2623 1.60277C63.4053 1.92993 63.4791 2.28312 63.4791 2.64017C63.4791 2.99722 63.4053 3.35041 63.2623 3.67756C63.1193 4.00472 62.9102 4.29877 62.6481 4.54126C62.3843 4.78537 62.0741 4.97398 61.7359 5.09588C61.3978 5.21779 61.0386 5.27052 60.6797 5.25094Z" fill="white"/>
<path d="M57.9031 7.10547H63.4458V18.5535H66.9165C66.6264 18.7192 65.8805 19.403 64.6579 20.2526C63.4354 21.1021 63.1039 21.2627 61.7156 21.2627C60.9638 21.266 60.2278 21.047 59.6001 20.6331C58.9725 20.2193 58.4812 19.6291 58.188 18.9368C57.9983 18.4805 57.9015 17.9909 57.9031 17.4967V7.10547Z" fill="white"/>
<path d="M69.6981 21.2677H75.2512V0.0292969L69.7085 4.24072L69.6981 21.2677Z" fill="white"/>
<path d="M79.3955 9.13094V4.41187H85.2853L79.3955 9.13094Z" fill="white"/>
<path d="M79.3954 10.8142L75.2513 14.1865L79.5871 21.2677H86L79.3954 10.8142Z" fill="white"/>
<path d="M44.7302 13.1765H52.7024C53.3965 12.327 53.526 11.1407 53.3965 9.80424C53.0754 6.49934 50.9722 4.42212 46.6365 4.42212C48.2423 6.20925 48.8898 7.62342 48.5428 9.80424C48.2682 11.5448 46.6365 12.1664 44.7302 13.1765Z" fill="white"/>
<path d="M44.7301 4.41187C39.1356 5.75351 37.7939 8.79423 37.7939 13.218C37.7939 17.6418 41.6738 21.3042 46.4654 21.3042C51.1275 21.3042 52.6815 18.6105 52.6815 18.6105C49.3352 18.7763 42.2229 17.3155 42.627 10.1825C42.8238 7.10552 44.383 5.08528 44.7301 4.41187Z" fill="white"/>
</svg>
