<svg width="34" height="34" viewBox="0 0 34 34" fill="none" xmlns="http://www.w3.org/2000/svg">
<path d="M4.94271 15.3172C13.8144 11.4143 25.2952 6.65581 26.8799 5.99721C31.0369 4.27341 32.3125 4.60377 31.6765 8.42126C31.2197 11.1651 29.9018 20.2493 28.8515 25.9035C28.2282 29.2565 26.8298 29.654 24.6309 28.2033C23.5735 27.5052 18.2362 23.9757 17.0778 23.147C16.0204 22.3917 14.562 21.4832 16.391 19.6937C17.0418 19.0563 21.3082 14.9826 24.6323 11.8117C25.0679 11.3952 24.5208 10.7112 24.0182 11.0451C19.5378 14.0162 13.3259 18.1401 12.5353 18.6772C11.341 19.4883 10.1939 19.8603 8.13478 19.2688C6.57898 18.822 5.05918 18.289 4.46764 18.0857C2.1897 17.3036 2.73042 16.2906 4.94271 15.3172Z" fill="white"/>
</svg>
