<svg width="20" height="21" viewBox="0 0 20 21" fill="none" xmlns="http://www.w3.org/2000/svg">
<path d="M2.90742 9.4606C8.12608 7.04998 14.8794 4.11093 15.8116 3.70415C18.257 2.63945 19.0073 2.84349 18.6332 5.20136C18.3645 6.89607 17.5893 12.5069 16.9714 15.9992C16.6047 18.0702 15.7822 18.3157 14.4887 17.4197C13.8667 16.9885 10.7271 14.8085 10.0457 14.2967C9.42368 13.8301 8.56581 13.269 9.64168 12.1638C10.0245 11.7701 12.5342 9.25394 14.4895 7.29544C14.7457 7.03821 14.4239 6.61573 14.1283 6.82195C11.4928 8.65706 7.83874 11.2041 7.37367 11.5359C6.6711 12.0369 5.99634 12.2667 4.7851 11.9013C3.86993 11.6253 2.97593 11.2961 2.62796 11.1706C1.288 10.6875 1.60607 10.0618 2.90742 9.4606Z" fill="white"/>
</svg>
