<svg width="36" height="36" viewBox="0 0 36 36" fill="none" xmlns="http://www.w3.org/2000/svg">
<path d="M33.4238 10.125C33.125 8.47559 31.7012 7.27441 30.0488 6.89941C27.5762 6.375 23 6 18.0488 6C13.1006 6 8.45117 6.375 5.97559 6.89941C4.32617 7.27441 2.89941 8.39941 2.60059 10.125C2.29883 12 2 14.625 2 18C2 21.375 2.29883 24 2.67383 25.875C2.97559 27.5244 4.39941 28.7256 6.04883 29.1006C8.67383 29.625 13.1738 30 18.125 30C23.0762 30 27.5762 29.625 30.2012 29.1006C31.8506 28.7256 33.2744 27.6006 33.5762 25.875C33.875 24 34.25 21.2988 34.3262 18C34.1738 14.625 33.7988 12 33.4238 10.125ZM14 23.25V12.75L23.1494 18L14 23.25Z" fill="white"/>
</svg>
