<svg width="22" height="22" viewBox="0 0 22 22" fill="none" xmlns="http://www.w3.org/2000/svg">
<path d="M20.4256 6.18749C20.243 5.17951 19.3729 4.44547 18.3631 4.2163C16.8521 3.89582 14.0555 3.66666 11.0298 3.66666C8.00586 3.66666 5.16455 3.89582 3.65169 4.2163C2.64372 4.44547 1.77181 5.13297 1.58919 6.18749C1.40479 7.33332 1.22217 8.93749 1.22217 11C1.22217 13.0625 1.40479 14.6667 1.63395 15.8125C1.81836 16.8205 2.68848 17.5545 3.69645 17.7837C5.30062 18.1042 8.05062 18.3333 11.0763 18.3333C14.1021 18.3333 16.8521 18.1042 18.4562 17.7837C19.4642 17.5545 20.3343 16.867 20.5187 15.8125C20.7013 14.6667 20.9305 13.0159 20.9771 11C20.884 8.93749 20.6548 7.33332 20.4256 6.18749ZM8.5555 14.2083V7.79166L14.1468 11L8.5555 14.2083Z" fill="white"/>
</svg>
